<?xml version="1.0" encoding="UTF-8" standalone="no" ?>
<!DOCTYPE svg PUBLIC "-//W3C//DTD SVG 1.1//EN" "http://www.w3.org/Graphics/SVG/1.1/DTD/svg11.dtd">
<svg xmlns="http://www.w3.org/2000/svg" xmlns:xlink="http://www.w3.org/1999/xlink" version="1.1" width="1080" height="1080" viewBox="0 0 1080 1080" xml:space="preserve">
<desc>Created with Fabric.js 5.2.4</desc>
<defs>
</defs>
<g transform="matrix(1 0 0 1 540 540)" id="786f279e-3538-4efc-bf9a-5998f28201cf"  >
<rect style="stroke: none; stroke-width: 1; stroke-dasharray: none; stroke-linecap: butt; stroke-dashoffset: 0; stroke-linejoin: miter; stroke-miterlimit: 4; fill: rgb(255,255,255); fill-rule: nonzero; opacity: 1; visibility: hidden;" vector-effect="non-scaling-stroke"  x="-540" y="-540" rx="0" ry="0" width="1080" height="1080" />
</g>
<g transform="matrix(1 0 0 1 540 540)" id="8bea6e94-aa78-47f1-a181-77930146ae11"  >
</g>
<g transform="matrix(32.7 0 0 32.7 540 540)" id="a9d10281-cf4c-4911-bd02-474a5d8e0aff"  >
<path style="stroke: rgb(0,0,0); stroke-width: 0; stroke-dasharray: none; stroke-linecap: butt; stroke-dashoffset: 0; stroke-linejoin: miter; stroke-miterlimit: 4; fill: rgb(255,215,0); fill-rule: nonzero; opacity: 1;" vector-effect="non-scaling-stroke"  transform=" translate(-16, -15.94)" d="M 0.256 12.16 Q 0.8 14.24 2.3360000000000003 15.776 L 16 29.92 L 29.664 15.776000000000002 Q 31.200000000000003 14.240000000000002 31.744 12.160000000000002 Q 32.288 10.080000000000002 31.744 8.032000000000002 Q 31.200000000000003 5.984000000000002 29.664 4.448000000000002 Q 28.128 2.9120000000000026 26.080000000000002 2.368000000000002 Q 24.032000000000004 1.8240000000000016 21.92 2.368000000000002 Q 19.808 2.9120000000000026 18.336000000000002 4.448000000000002 L 16.000000000000004 7.264000000000002 L 13.664000000000003 4.448000000000002 Q 12.128000000000004 2.912000000000002 10.080000000000004 2.368000000000002 Q 8.032000000000004 1.824000000000002 5.9520000000000035 2.368000000000002 Q 3.8720000000000034 2.912000000000002 2.3360000000000034 4.448000000000002 Q 0.8000000000000034 5.984000000000002 0.25600000000000334 8.032000000000002 Q -0.2879999999999967 10.080000000000002 0.25600000000000334 12.160000000000002 z" stroke-linecap="round" />
</g>
<g transform="matrix(NaN NaN NaN NaN 0 0)"  >
<g style=""   >
</g>
</g>
<g transform="matrix(NaN NaN NaN NaN 0 0)"  >
<g style=""   >
</g>
</g>
</svg>